name rise49.8558peak67.6521fall70.3087.mot
datacolumns 19
datarows 24
range 11.72162200000000 11.75995600000000
endheader
time	ground_force1_vx	ground_force1_vy	ground_force1_vz	ground_force1_px	ground_force1_py	ground_force1_pz	ground_force2_vx	ground_force2_vy	ground_force2_vz	ground_force2_px	ground_force2_py	ground_force2_pz	ground_torque1_x	ground_torque1_y	ground_torque1_z	ground_torque2_x	ground_torque2_y	ground_torque2_z	
11.72162200000000	73.64919600000000	741.57055500000001	60.99028200000000	0.45367800000000	0.00000000000000	0.11496100000000	0.42184500000000	3.65346400000000	0.43918000000000	0.00000000000000	0.00000000000000	0.00000000000000	0.00000000000000	37.24668900000000	0.00000000000000	0.00000000000000	0.11871400000000	0.00000000000000	
11.72329000000000	73.09643199999999	745.46390599999995	61.26945800000000	0.45244900000000	0.00000000000000	0.11495600000000	0.00000000000000	0.00000000000000	0.00000000000000	0.00000000000000	0.00000000000000	0.00000000000000	0.00000000000000	37.46418900000000	0.00000000000000	0.00000000000000	0.00000000000000	0.00000000000000	
11.72495900000000	72.53738400000000	749.25696000000005	61.55027100000000	0.45123900000000	0.00000000000000	0.11495100000000	0.00000000000000	0.00000000000000	0.00000000000000	0.00000000000000	0.00000000000000	0.00000000000000	0.00000000000000	37.68491800000000	0.00000000000000	0.00000000000000	0.00000000000000	0.00000000000000	
11.72661900000000	71.97256400000001	752.94539499999996	61.83223600000000	0.45004700000000	0.00000000000000	0.11494500000000	0.00000000000000	0.00000000000000	0.00000000000000	0.00000000000000	0.00000000000000	0.00000000000000	0.00000000000000	37.90843600000000	0.00000000000000	0.00000000000000	0.00000000000000	0.00000000000000	
11.72828600000000	71.40242900000000	756.52493700000002	62.11478500000000	0.44887300000000	0.00000000000000	0.11493900000000	0.00000000000000	0.00000000000000	0.00000000000000	0.00000000000000	0.00000000000000	0.00000000000000	0.00000000000000	38.13423800000000	0.00000000000000	0.00000000000000	0.00000000000000	0.00000000000000	
11.72995800000000	70.82739100000001	759.99138100000005	62.39727500000000	0.44771900000000	0.00000000000000	0.11493200000000	0.00000000000000	0.00000000000000	0.00000000000000	0.00000000000000	0.00000000000000	0.00000000000000	0.00000000000000	38.36175800000000	0.00000000000000	0.00000000000000	0.00000000000000	0.00000000000000	
11.73162300000000	70.24781200000000	763.34060999999997	62.67899200000000	0.44658300000000	0.00000000000000	0.11492400000000	0.00000000000000	0.00000000000000	0.00000000000000	0.00000000000000	0.00000000000000	0.00000000000000	0.00000000000000	38.59037400000000	0.00000000000000	0.00000000000000	0.00000000000000	0.00000000000000	
11.73328700000000	69.66401000000000	766.56861700000002	62.95915800000000	0.44546700000000	0.00000000000000	0.11491600000000	0.00000000000000	0.00000000000000	0.00000000000000	0.00000000000000	0.00000000000000	0.00000000000000	0.00000000000000	38.81941400000000	0.00000000000000	0.00000000000000	0.00000000000000	0.00000000000000	
11.73495200000000	69.07626000000000	769.67152299999998	63.23693800000000	0.44436900000000	0.00000000000000	0.11490600000000	0.00000000000000	0.00000000000000	0.00000000000000	0.00000000000000	0.00000000000000	0.00000000000000	0.00000000000000	39.04815600000000	0.00000000000000	0.00000000000000	0.00000000000000	0.00000000000000	
11.73662200000000	68.48479900000000	772.64559499999996	63.51144100000000	0.44329100000000	0.00000000000000	0.11489600000000	0.00000000000000	0.00000000000000	0.00000000000000	0.00000000000000	0.00000000000000	0.00000000000000	0.00000000000000	39.27584400000000	0.00000000000000	0.00000000000000	0.00000000000000	0.00000000000000	
11.73829300000000	67.88982300000001	775.48726699999997	63.78173500000000	0.44223100000000	0.00000000000000	0.11488400000000	0.00000000000000	0.00000000000000	0.00000000000000	0.00000000000000	0.00000000000000	0.00000000000000	0.00000000000000	39.50168200000000	0.00000000000000	0.00000000000000	0.00000000000000	0.00000000000000	
11.73995300000000	67.29149600000000	778.19315500000005	64.04684800000000	0.44118900000000	0.00000000000000	0.11487100000000	0.00000000000000	0.00000000000000	0.00000000000000	0.00000000000000	0.00000000000000	0.00000000000000	0.00000000000000	39.72484600000000	0.00000000000000	0.00000000000000	0.00000000000000	0.00000000000000	
11.74162200000000	66.68995200000001	780.76007900000002	64.30577800000000	0.44016600000000	0.00000000000000	0.11485700000000	0.00000000000000	0.00000000000000	0.00000000000000	0.00000000000000	0.00000000000000	0.00000000000000	0.00000000000000	39.94449100000000	0.00000000000000	0.00000000000000	0.00000000000000	0.00000000000000	
11.74329300000000	66.08529400000000	783.18507299999999	64.55749900000001	0.43916000000000	0.00000000000000	0.11484200000000	0.00000000000000	0.00000000000000	0.00000000000000	0.00000000000000	0.00000000000000	0.00000000000000	0.00000000000000	40.15975100000000	0.00000000000000	0.00000000000000	0.00000000000000	0.00000000000000	
11.74496000000000	65.47760000000000	785.46540500000003	64.80096800000000	0.43817100000000	0.00000000000000	0.11482500000000	0.00000000000000	0.00000000000000	0.00000000000000	0.00000000000000	0.00000000000000	0.00000000000000	0.00000000000000	40.36975200000000	0.00000000000000	0.00000000000000	0.00000000000000	0.00000000000000	
11.74662000000000	64.86692900000000	787.59858999999994	65.03513599999999	0.43719900000000	0.00000000000000	0.11480700000000	0.00000000000000	0.00000000000000	0.00000000000000	0.00000000000000	0.00000000000000	0.00000000000000	0.00000000000000	40.57361200000000	0.00000000000000	0.00000000000000	0.00000000000000	0.00000000000000	
11.74829200000000	64.25331700000000	789.58240400000000	65.25894900000000	0.43624300000000	0.00000000000000	0.11478700000000	0.00000000000000	0.00000000000000	0.00000000000000	0.00000000000000	0.00000000000000	0.00000000000000	0.00000000000000	40.77044700000000	0.00000000000000	0.00000000000000	0.00000000000000	0.00000000000000	
11.74996000000000	63.63678800000000	791.41489500000000	65.47136200000000	0.43530100000000	0.00000000000000	0.11476500000000	0.00000000000000	0.00000000000000	0.00000000000000	0.00000000000000	0.00000000000000	0.00000000000000	0.00000000000000	40.95938300000000	0.00000000000000	0.00000000000000	0.00000000000000	0.00000000000000	
11.75162100000000	63.01735100000000	793.09439799999996	65.67134000000000	0.43437500000000	0.00000000000000	0.11474200000000	0.00000000000000	0.00000000000000	0.00000000000000	0.00000000000000	0.00000000000000	0.00000000000000	0.00000000000000	41.13955300000000	0.00000000000000	0.00000000000000	0.00000000000000	0.00000000000000	
11.75328900000000	62.39500700000000	794.61953800000003	65.85787100000000	0.43346200000000	0.00000000000000	0.11471700000000	0.00000000000000	0.00000000000000	0.00000000000000	0.00000000000000	0.00000000000000	0.00000000000000	0.00000000000000	41.31010900000000	0.00000000000000	0.00000000000000	0.00000000000000	0.00000000000000	
11.75495700000000	61.76975100000000	795.98924799999998	66.02996899999999	0.43256200000000	0.00000000000000	0.11469000000000	0.00000000000000	0.00000000000000	0.00000000000000	0.00000000000000	0.00000000000000	0.00000000000000	0.00000000000000	41.47022300000000	0.00000000000000	0.00000000000000	0.00000000000000	0.00000000000000	
11.75662600000000	61.14157300000000	797.20276600000000	66.18668099999999	0.43167500000000	0.00000000000000	0.11466100000000	0.00000000000000	0.00000000000000	0.00000000000000	0.00000000000000	0.00000000000000	0.00000000000000	0.00000000000000	41.61909400000000	0.00000000000000	0.00000000000000	0.00000000000000	0.00000000000000	
11.75829200000000	60.51046500000000	798.25965199999996	66.32709199999999	0.43079800000000	0.00000000000000	0.11463000000000	0.00000000000000	0.00000000000000	0.00000000000000	0.00000000000000	0.00000000000000	0.00000000000000	0.00000000000000	41.75595200000000	0.00000000000000	0.00000000000000	0.00000000000000	0.00000000000000	
11.75995600000000	59.87641900000000	799.15978500000006	66.45033700000000	0.42993200000000	0.00000000000000	0.11459800000000	0.00000000000000	0.00000000000000	0.00000000000000	0.00000000000000	0.00000000000000	0.00000000000000	0.00000000000000	41.88006400000000	0.00000000000000	0.00000000000000	0.00000000000000	0.00000000000000	
